<svg id="Layer_1" data-name="Layer 1" xmlns="http://www.w3.org/2000/svg" xmlns:xlink="http://www.w3.org/1999/xlink" viewBox="0 0 74.17 126.32"><defs><style>.cls-1,.cls-7{fill:none;}.cls-2{clip-path:url(#clip-path);}.cls-3{fill:#ffc107;}.cls-4{fill:#ffe0b2;}.cls-5{fill:#616161;}.cls-6{fill:#424242;}.cls-7{stroke:#333;stroke-linecap:round;stroke-linejoin:round;}</style><clipPath id="clip-path"><rect class="cls-1" width="74.17" height="126.32"/></clipPath></defs><title>recast-ai-bot-builder-user</title><g class="cls-2"><path class="cls-3" d="M74.17,126.32a36.72,36.72,0,1,0-73.45,0c0,1.67,9.35,3.59,9.35,6.84,0,9.51,54.25,9,54.25-.42C64.32,129.07,74.17,128.24,74.17,126.32Z"/><ellipse class="cls-3" cx="36.94" cy="93.93" rx="7.01" ry="6.18"/><path class="cls-4" d="M61.4,46h0V32.84a24.12,24.12,0,0,0-48.24,0V46H13a4.84,4.84,0,0,0,0,9.68h0.17v8.18c0,11.27,7,14.86,17.53,17.44V92c0,4.34,2.75,6.59,6.26,6.59s6-2.24,6-6.59c0-2-.08-8.43-0.08-10.43V81.16C53,78.32,61.31,74.9,61.31,63.88V55.71h0a4.84,4.84,0,0,0,4.84-4.84h0A4.72,4.72,0,0,0,61.58,46H61.4Z"/><path class="cls-5" d="M62.9,31.58c0,6.68-17.44,9-33.89,2.67-9.77-3.67-16.36,14.44-16.36,13.19-0.08-3.92-.17-12.27-0.17-15.86,0-13.35,11.27-25.21,25.21-25.21S62.9,18.23,62.9,31.58Z"/><circle class="cls-6" cx="31.35" cy="44.94" r="3.76"/><circle class="cls-6" cx="42.2" cy="44.94" r="3.76"/><path class="cls-7" d="M25.92,65s3.34,7.18,11.18,4.76"/></g></svg>