<?xml version="1.0" encoding="utf-8"?>
<!-- Generator: Adobe Illustrator 19.2.1, SVG Export Plug-In . SVG Version: 6.00 Build 0)  -->
<svg version="1.1" id="Layer_1" xmlns="http://www.w3.org/2000/svg" xmlns:xlink="http://www.w3.org/1999/xlink" x="0px" y="0px"
	 viewBox="0 0 175.3 188.4" style="enable-background:new 0 0 175.3 188.4;" xml:space="preserve">
<style type="text/css">
	.st0{fill:url(#SVGID_1_);}
	.st1{fill:#FFDE80;}
	.st2{opacity:0.2;fill:url(#SVGID_2_);}
	.st3{opacity:0.5;fill:url(#SVGID_3_);}
	.st4{fill:#FFF4DC;}
	.st5{fill:#FBB216;}
</style>
<g>
	<g>
		<linearGradient id="SVGID_1_" gradientUnits="userSpaceOnUse" x1="82.6471" y1="70.7827" x2="107.6505" y2="188.4147">
			<stop  offset="0" style="stop-color:#FFD54F"/>
			<stop  offset="0.1244" style="stop-color:#FFD246"/>
			<stop  offset="0.6994" style="stop-color:#FFC61F"/>
			<stop  offset="1" style="stop-color:#FFC110"/>
		</linearGradient>
		<path class="st0" d="M87.4,176.1c2.3,0,4.6-0.1,6.8-0.3c1.3-0.1,4.9-0.5,6.3-0.7c2.3-0.3,5.1,13.7,7.3,13.2
			c2.3-0.5,1.8-15,4.1-15.7c36.6-10.6,63.3-40.3,63.3-84.3H-0.4c0,40,25.2,71.7,60.1,83.3c2,0.7,1.9,16.2,4,16.7
			c2.1,0.5,6.5-14,8.7-13.6c2.7,0.5,5.4,0.8,8.1,1C82.8,176,85.1,176.1,87.4,176.1z"/>
		<ellipse class="st1" cx="87.4" cy="88.1" rx="87.8" ry="16.8"/>
		<linearGradient id="SVGID_2_" gradientUnits="userSpaceOnUse" x1="-0.3724" y1="52.7624" x2="175.2326" y2="52.7624">
			<stop  offset="0" style="stop-color:#FFD54F"/>
			<stop  offset="0.1244" style="stop-color:#FFD246"/>
			<stop  offset="0.6994" style="stop-color:#FFC61F"/>
			<stop  offset="1" style="stop-color:#FFC110"/>
		</linearGradient>
		<path class="st2" d="M175.2,88.4c0-45-35.6-84.5-80.9-88c-2.3-0.2-4.6-0.8-6.9-0.8c-2.3,0-4.6,0.6-6.8,0.7c-45.3,3.5-81,43-81,88
			h0.1c0,3-0.1,0.4-0.1,0.6c0,9.3,39.3,16.8,87.8,16.8c48.5,0,87.8-7.6,87.8-16.9C175.2,88.8,175.2,91.4,175.2,88.4L175.2,88.4z"/>
		<linearGradient id="SVGID_3_" gradientUnits="userSpaceOnUse" x1="86.0622" y1="154.7323" x2="86.0622" y2="176.1008">
			<stop  offset="0" style="stop-color:#FFC110"/>
			<stop  offset="0.4129" style="stop-color:#FEBE11"/>
			<stop  offset="0.6799" style="stop-color:#FDB614"/>
			<stop  offset="0.9049" style="stop-color:#FAA718"/>
			<stop  offset="1" style="stop-color:#F89E1B"/>
		</linearGradient>
		<path class="st3" d="M125.7,167c-11.2,5-23.7,9.6-38.3,9.1c-21.4-0.7-34.3-7.4-42-11c-3.6-1.7,18.2-10.3,44.4-10.3
			C108,154.7,133.2,163.7,125.7,167z"/>
	</g>
	<path class="st4" d="M75,122.6c0-4.4-3.2-7.9-6.8-7.9c-3.6,0-6.7,3.5-6.7,7.9c0,0.8-0.1,3.6-0.1,4.4c0,4.4,3.2,7.9,6.8,7.9
		c3.6,0,6.8-3.5,6.8-7.9C75,126.2,75,123.4,75,122.6z"/>
	<path class="st4" d="M110,122.6c0-4.4-3.6-7.9-7.2-7.9c-3.6,0-6.9,3.5-6.9,7.9c0,0.8-0.2,3.6-0.2,4.4c0,4.4,3.5,7.9,7.2,7.9
		c3.6,0,7.2-3.5,7.2-7.9C110,126.2,110,123.4,110,122.6z"/>
	<path class="st5" d="M106,126.7c0-1.9-1.3-3.4-3.1-3.4c-1.9,0-3.3,1.5-3.3,3.4c0,0.3,0.1,1.5,0.1,1.9c0,1.9,1.3,3.4,3.2,3.4
		c1.9,0,3.2-1.5,3.2-3.4C106,128.3,106,127,106,126.7z"/>
	<path class="st5" d="M72,126.7c0-1.9-1.3-3.4-3.1-3.4c-1.9,0-3.3,1.5-3.3,3.4c0,0.3,0.1,1.5,0.1,1.9c0,1.9,1.3,3.4,3.2,3.4
		c1.9,0,3.2-1.5,3.2-3.4C72,128.3,72,127,72,126.7z"/>
</g>
</svg>
