<?xml version="1.0" encoding="utf-8"?>
<!-- Generator: Adobe Illustrator 19.2.1, SVG Export Plug-In . SVG Version: 6.00 Build 0)  -->
<svg version="1.1" id="Layer_1" xmlns="http://www.w3.org/2000/svg" xmlns:xlink="http://www.w3.org/1999/xlink" x="0px" y="0px"
	 viewBox="0 0 76.2 140.5" style="enable-background:new 0 0 76.2 140.5;" xml:space="preserve">
<style type="text/css">
	.st0{fill:#42A5F5;}
	.st1{fill:#FFFFFF;}
	.st2{fill:#64B5F6;}
</style>
<path class="st0" d="M73.2,89.8H3c-1.6,0-3-1.3-3-3V16.5c0-1.6,1.4-3,3-3h70.2c1.7,0,3,1.4,3,3v70.2C76.2,88.4,74.9,89.8,73.2,89.8z
	"/>
<path class="st1" d="M57,54.5H42.5c-1.7,0-3-1.3-3-3V34.1c0-1.7,1.3-3,3-3H57c1.7,0,3,1.4,3,3v17.4C60,53.2,58.7,54.5,57,54.5z"/>
<path class="st1" d="M33,54.5H18.5c-1.6,0-3-1.3-3-3V34.1c0-1.7,1.4-3,3-3H33c1.7,0,3,1.4,3,3v17.4C36,53.2,34.7,54.5,33,54.5z"/>
<circle class="st0" cx="26.4" cy="42.8" r="5.1"/>
<circle class="st0" cx="50.1" cy="42.8" r="5.1"/>
<rect x="22.5" y="6.9" class="st2" width="29.5" height="7.6"/>
<rect x="31.5" class="st2" width="11.8" height="7.9"/>
<rect x="29.5" y="89.8" class="st0" width="18.6" height="11.8"/>
<path class="st2" d="M73.2,140.5H3c-1.6,0-3-1.4-3-3v-41c0-1.7,1.4-3,3-3h70.2c1.7,0,3,1.3,3,3v41C76.2,139.1,74.9,140.5,73.2,140.5
	z"/>
<rect x="9" y="101.5" class="st1" width="8.2" height="8.2"/>
<rect x="19.2" y="101.5" class="st1" width="8.2" height="8.2"/>
</svg>
